C:\GBW_MyPrograms\KinderuniversiteitApp\Resultaten\smurftest\Kleuter\Kleuter_v1.mot
version=1
nRows=8
nColumns=29
inDegrees=yes
endheader
                time	         pelvis_tilt	           pelvis_tx	           pelvis_ty	       hip_flexion_l	       hip_flexion_r	        knee_angle_l	        knee_angle_r	       ankle_angle_l	       ankle_angle_r	    lumbar_extension	hamstrings_r/activation	bifemsh_r/activation	glut_max_r/activation	iliopsoas_r/activation	rect_fem_r/activation	  vasti_r/activation	gastroc_r/activation	 soleus_r/activation	tib_ant_r/activation	hamstrings_l/activation	bifemsh_l/activation	glut_max_l/activation	iliopsoas_l/activation	rect_fem_l/activation	  vasti_l/activation	gastroc_l/activation	 soleus_l/activation	tib_ant_l/activation	
          0.44416175	          2.02232986	          0.23540573	          0.47565226	         19.88313059	        -17.14271464	        -24.34915909	         -5.72082146	         -7.26696142	        -17.78728482	        -12.01819824	          0.05000032	          0.05000366	          0.05000042	          0.34975229	          0.19887905	          0.07329339	          0.41605357	          0.32800452	          0.05000013	          0.09519525	          0.05040450	          0.05000029	          0.09421166	          0.05822625	          0.05000011	          0.05000203	          0.05000031	          0.08437880	
          0.45304499	          2.01960632	          0.24094164	          0.47487983	         19.59015267	        -17.49535027	        -23.45156714	         -6.30225585	         -7.79625193	        -18.18329952	        -11.96425931	          0.05000034	          0.05000413	          0.05000071	          0.36850112	          0.17323206	          0.07721252	          0.39766093	          0.35783950	          0.05000009	          0.10766801	          0.05000221	          0.05000345	          0.08206222	          0.06974644	          0.05000016	          0.05005006	          0.05000150	          0.08210619	
          0.46192822	          2.01915893	          0.24667196	          0.47411042	         19.18930747	        -17.76081694	        -22.80038764	         -7.07664822	         -8.25591229	        -18.62857279	        -11.88797824	          0.05000030	          0.05001219	          0.05000022	          0.37054579	          0.15089213	          0.08105972	          0.37491978	          0.38812647	          0.05000007	          0.11837546	          0.05000133	          0.05000020	          0.07147963	          0.07270291	          0.05182639	          0.05000060	          0.05001029	          0.07862302	
          0.47081146	          2.02174506	          0.25260620	          0.47333765	         18.66975517	        -17.93154185	        -22.45472426	         -8.06176218	         -8.61529116	        -19.12589355	        -11.78550552	          0.05000028	          0.05000255	          0.05000014	          0.33456497	          0.13143306	          0.07590874	          0.34855741	          0.41563647	          0.05000004	          0.11319810	          0.05000020	          0.05000132	          0.06226193	          0.06432871	          0.06127605	          0.05000027	          0.06322941	          0.08065975	
          0.47969469	          2.02791438	          0.25874229	          0.47256089	         18.02419671	        -18.00307521	        -22.44800923	         -9.26587172	         -8.80950898	        -19.67996205	        -11.65422798	          0.05000064	          0.05000226	          0.07110634	          0.29141941	          0.11448342	          0.07235897	          0.30360738	          0.41186527	          0.05000002	          0.12118789	          0.12001938	          0.05000017	          0.05740110	          0.05603289	          0.05337386	          0.11680850	          0.15315731	          0.07025783	
          0.48857793	          2.03669046	          0.26502152	          0.47181078	         17.30087237	        -17.98076222	        -22.55323972	        -10.66308536	         -8.80811871	        -20.28957415	        -11.50236567	          0.05000045	          0.05000281	          0.06193651	          0.25383784	          0.09971961	          0.07824845	          0.26445397	          0.35875090	          0.05000002	          0.11482553	          0.10454174	          0.08550094	          0.05000026	          0.05000032	          0.05734037	          0.14218010	          0.20784557	          0.06119734	
          0.49746116	          2.04673312	          0.27136034	          0.47114833	         16.56161831	        -17.86895552	        -22.68282436	        -12.22098186	         -8.62034487	        -20.96263815	        -11.34180207	          0.05000037	          0.05000056	          0.08902794	          0.22110296	          0.08685975	          0.06815772	          0.23034980	          0.31248613	          0.05000001	          0.11487918	          0.09106010	          0.10064190	          0.05000017	          0.05000030	          0.09057483	          0.16139943	          0.23882867	          0.05330533	
          0.50634440	          2.05694588	          0.27768694	          0.47062162	         15.82340993	        -17.66528371	        -22.82331109	        -13.92190496	         -8.33651865	        -21.71358370	        -11.18082292	          0.05000304	          0.05004992	          0.10343098	          0.19849520	          0.07565829	          0.05936810	          0.20064372	          0.27218770	          0.06007158	          0.11852708	          0.07931708	          0.12829435	          0.05000016	          0.05000027	          0.11190585	          0.18079279	          0.27659417	          0.05000012	
